<svg xmlns="http://www.w3.org/2000/svg" width="100" height="100">
  <defs>
    <g id="outer">
      <path d="M264.31999 553.54526c-66.82243-3.62219-130.92326-32.32612-178.55118-79.95406-68.55316-68.55316-95.94005-168.632-71.71662-262.07119 12.49075-48.18167 36.8371-90.87168 71.71662-125.7512 68.55315-68.55316 168.63198-95.94005 262.07117-71.71662 48.18166 12.49075 90.87167 36.8371 125.75118 71.71663 68.55316 68.55316 95.94005 168.632 71.71662 262.07119-12.49075 48.18167-36.8371 90.87168-71.71662 125.75119-21.94317 21.94318-44.75335 38.21798-73.27118 52.27812-33.56319 16.54767-68.57006 25.62603-106.88 27.71729-12.74034.69546-15.60215.6914-29.11999-.0413zm34.94705-3.79136c79.17126-6.19828 149.9797-44.92022 197.18918-107.83388 34.93855-46.56084 53.94375-103.72043 53.94375-162.24001 0-85.36395-40.07506-165.44619-108.47999-216.77625C395.35915 27.9652 338.19956 8.96 279.67998 8.96c-85.36393 0-165.44617 40.07507-216.77623 108.48C27.99325 163.96346 8.96 221.20741 8.96 279.68001c0 85.36395 40.07506 165.44619 108.47999 216.77625 40.6005 30.46602 90.01599 49.10321 141.12 53.22381 9.72806.78438 31.1351.82321 40.70705.0738zm-19.58706-18.99819v-10.24003l10.96142-.44497c6.02877-.24473 11.28477-.50475 11.68-.57783.82006-.15163 3.02315 19.36124 2.28464 20.23522-.24542.29044-5.95418.69448-12.68613.89785l-12.23993.36978zm-50.23999 5.47173c-5.28-1.05452-9.83141-2.14291-10.11425-2.41862-.5658-.55155 3.88123-19.89878 4.56776-19.87244.23456.009 4.60249.87048 9.70649 1.91441s10.072 1.90056 11.04 1.90364c.968.003 1.76.22989 1.76.50403 0 .27415-.5715 4.52215-1.26999 9.44-.6985 4.91786-1.2745 9.30156-1.28 9.74156-.0154 1.22973-3.75845.91476-14.41001-1.21258zm108.84058-12.15965c-1.27021-5.33072-2.16193-9.83977-1.98159-10.0201.4642-.4642 19.61417-6.04921 21.03903-6.13595.95476-.0581 1.7741 1.62646 4.32303 8.88828 1.72975 4.928 3.03046 9.26322 2.89047 9.63383-.31382.83082-21.26311 7.32617-23.62888 7.32617-.18292 0-1.37185-4.36151-2.64206-9.69223zm-161.96058-4.29936c-7.97684-3.48497-15.04-6.99126-15.04-7.46615 0-.17563 2.01919-4.35002 4.48709-9.27643l4.4871-8.9571 3.68163 1.85848c2.02489 1.02216 6.5577 3.07532 10.0729 4.56257 3.5152 1.48725 6.64993 2.94251 6.96606 3.23393.59387.54744-6.39682 19.17113-7.18386 19.13833-.23701-.01-3.59892-1.40201-7.47092-3.09363zm217.41142-16.0539c-2.53629-4.84617-4.61143-8.97629-4.61143-9.17804 0-.20175 2.232-1.59586 4.96-3.09803 2.728-1.50218 7.25344-4.10671 10.05655-5.78785l5.09655-3.05663 5.28927 8.14302c2.9091 4.47866 5.29566 8.4924 5.30345 8.91941.0143.78393-10.78423 7.46864-17.72391 10.97178l-3.75906 1.89756zm-271.81142-15.66565c-3.872-2.95677-8.15387-6.34347-9.51528-7.52599l-2.47528-2.15003 6.23186-7.34642c3.42753-4.04054 6.44162-7.57624 6.69799-7.85712.25636-.28089 1.7339.55193 3.28341 1.85071 1.54952 1.29878 5.64605 4.50683 9.1034 7.129 3.45736 2.62217 6.15639 5.10561 5.99785 5.51876-.73348 1.91143-10.87753 15.77136-11.5381 15.76464-.41022-.004-3.91385-2.42677-7.78585-5.38355zm321.03427-17.11503c-3.30313-3.90997-6.03913-7.43616-6.08-7.83598-.0408-.39981 3.61439-4.29906 8.12277-8.665l8.19705-7.93808 7.37192 7.31261 7.37191 7.31262-8.79015 8.48c-4.83459 4.664-9.10462 8.47165-9.48897 8.46144-.38435-.0102-3.40139-3.21763-6.70453-7.12761zM77.808 445.66974c-6.624-8.13369-9.66838-12.2848-9.26308-12.63042.1403-.11964 2.99108-2.17756 6.33508-4.57318 3.344-2.39561 6.98419-5.03843 8.0893-5.87293l2.00932-1.51728 2.47069 3.37881c1.35888 1.85835 4.57766 5.91535 7.15285 9.01555 2.57518 3.10022 4.59118 5.85428 4.48 6.12013-.1689.40382-10.52473 9.78213-14.06546 12.73776-.95097.79382-1.71252.0904-7.2087-6.65844zm405.3125-18.15529c-4.35629-3.17107-7.99455-5.98514-8.08502-6.25349-.13319-.39505 8.04168-13.37097 11.54629-18.32735.82693-1.16949 1.26608-.99337 9.46269 3.79517 4.72753 2.76187 8.69862 5.09687 8.82465 5.18888.45341.33104-13.0211 21.36236-13.68661 21.36236-.0778 0-3.70571-2.59451-8.062-5.76557zM44.00949 392.48001c-2.66212-5.544-5.01962-10.68677-5.2389-11.42837-.36025-1.21837.45118-1.70399 8.41536-5.03639 4.84772-2.02841 9.14803-3.81847 9.55623-3.97791.4082-.15945.94692.37893 1.19716 1.19639.25024.81746 2.41151 5.58209 4.80282 10.58808l4.34785 9.10179-2.025 1.20551c-2.77053 1.64934-15.58834 8.4309-15.93522 8.4309-.15406 0-2.45819-4.536-5.1203-10.08zm467.67185-16.55822c-4.57526-1.92668-8.55715-3.74156-8.84866-4.03307-.29151-.29151.93757-4.4462 2.73129-9.23265 1.79372-4.78645 3.43562-9.57415 3.64866-10.63935.41704-2.0852.94231-2.26843 3.81184-1.32971 1.02053.33386 5.21685 1.63879 9.32515 2.89986l7.46965 2.29284-2.43778 7.18015c-4.03559 11.88625-5.89143 16.46267-6.65567 16.41256-.39922-.0262-4.46923-1.62396-9.04448-3.55063zm-485.0611-30.87063c-1.01395-1.66625-5.22365-23.62107-4.64092-24.2038.39054-.39055 17.44702-3.36686 19.46068-3.39584.44-.006.80526.63649.81169 1.42849.0064.792.98098 5.904 2.16568 11.36 1.1847 5.456 2.11543 9.96148 2.0683 10.01218-.42726.45968-19.67631 5.10974-19.86543 4.79897zm500.53016-26.0168c-4.86726-.81409-9.00432-1.63491-9.19346-1.82404-.18914-.18915.12117-4.20342.68957-8.9206.56841-4.71718 1.03346-9.80702 1.03346-11.31074v-2.73404l10.08.4581c5.544.25196 10.26693.64685 10.49539.87753.45991.46439-.41602 11.21345-1.58361 19.43355-.54663 3.84839-1.01375 5.32105-1.71178 5.39655-.528.0571-4.9423-.56222-9.80957-1.37631zM18.67093 272.38249c.11499-6.84116.37683-12.60562.58187-12.80994.20505-.20432 4.85645-.0351 10.33646.37607l9.96366.74754-.34156 11.57193c-.18786 6.36455-.37527 11.60405-.41646 11.64331-.0412.0393-4.63298.25997-10.20397.49046l-10.12907.41908zm501.01323-12.29139c.003-.3141-.6053-5.41149-1.35022-11.32754-.74492-5.91604-1.24383-10.86702-1.10868-11.00217.25531-.25531 17.84245-3.52138 18.96193-3.52138 1.02151 0 1.37027 1.53992 2.7076 11.95545 1.74923 13.62334 1.8645 12.76464-1.77482 13.2201-6.39023.79974-17.43986 1.22785-17.43581.67554zm-485.5608-34.40345c-4.99216-1.11518-9.23082-2.18177-9.41925-2.3702-.5077-.5077 5.45357-23.09742 6.38198-24.18391.24433-.28594 18.34638 5.67545 18.98915 6.25354.26139.23508-.49548 3.72716-1.68192 7.76017-1.18644 4.03302-2.50072 8.98876-2.92062 11.01276-.42569 2.05189-1.09731 3.6524-1.51808 3.61762-.41504-.0343-4.83911-.97481-9.83127-2.08998zm474.23817-21.40455c-.20346-.5957-2.06133-5.52182-4.12858-10.94692-2.06726-5.42511-3.68537-9.93002-3.59581-10.01093.51574-.46586 18.5438-8.03653 18.71577-7.85946.80807.83207 8.64706 21.61874 8.64706 22.92944 0 .29328-4.33541 1.98172-9.63425 3.75209-8.55316 2.85767-9.67576 3.09733-10.00419 2.13578zM53.44 169.81382c-4.576-2.3097-8.40997-4.28065-8.51994-4.3799-.44209-.39901 10.30057-20.5046 11.7505-21.99185.21163-.21707 15.90793 9.10481 17.13832 10.17827.29089.25379-1.08506 3.25699-3.05766 6.67378-1.9726 3.4168-4.44674 7.9164-5.4981 9.99912-1.05135 2.08272-2.2674 3.77175-2.70234 3.7534-.43493-.0184-4.53478-1.92313-9.11078-4.23282zm427.01565-22.77381c-2.36494-3.608-5.30029-7.88175-6.52298-9.49723l-2.22307-2.93721 8.14518-6.18673 8.14519-6.18673 1.79524 2.08395c3.66661 4.25628 12.79953 18.46494 12.22618 19.02101-.86871.84254-16.31112 10.26294-16.82354 10.26294-.24325 0-2.37724-2.952-4.7422-6.56zM85.94115 120.5256c-4.27987-3.45708-7.79948-6.53616-7.82137-6.84239-.04813-.67373 9.57716-11.75415 13.67693-15.74455l2.93977-2.86134 7.33531 7.3145 7.33531 7.3145-4.96261 5.14684c-2.72942 2.83077-6.2584 6.67936-7.84217 8.55244l-2.87959 3.4056zm358.53883-16.07722c-2.816-2.73477-6.63921-6.25842-8.49602-7.83034L432.60794 93.76l6.45031-7.84c3.54767-4.312 6.61894-7.84 6.82504-7.84.5526 0 8.1092 6.62451 13.81642 12.1122l4.97974 4.78819-7.2093 7.22981c-3.96511 3.97639-7.35799 7.22546-7.53974 7.22015-.18174-.005-2.63443-2.2472-5.45043-4.98197zM112.98104 91.68l-6.76431-7.52 2.73163-2.41806c4.94363-4.37613 15.88347-12.77061 16.75564-12.85711.81767-.0811 2.86383 2.46251 9.53438 11.85234l3.02429 4.25717-3.3681 2.46283c-1.85247 1.35456-5.88185 4.55083-8.9542 7.10283-3.07234 2.552-5.7231 4.64-5.89055 4.64-.16746 0-3.34841-3.384-7.06878-7.52zm289.25894-19.08672c-1.408-.88373-5.8-3.3467-9.76-5.47326-3.96-2.12655-7.2-3.97704-7.2-4.11219 0-.33521 8.2819-17.74306 8.58611-18.04727.34036-.34036 8.48323 3.7711 15.91142 8.0339 4.49345 2.57866 6.15504 3.85814 5.89394 4.53853-.68461 1.78408-10.03148 16.70705-10.45178 16.68704-.23083-.01101-1.57169-.74303-2.97969-1.62675zm-239.42252-12.282c-2.00357-3.7792-4.17714-7.76927-4.83016-8.86682-.65302-1.09755-1.18731-2.13037-1.18731-2.29515 0-.52488 20.17176-10.07313 21.66461-10.25489 1.27885-.1557 1.84477.81216 5.27487 9.02135 2.11327 5.05767 3.75641 9.27039 3.65142 9.36159-.10499.0912-2.3509 1.10285-4.9909 2.24812-2.64 1.14526-7.30643 3.33662-10.36984 4.86969l-5.56985 2.78739zm184.06252-11.69879c-3.344-1.0267-8.16632-2.33306-10.71627-2.90302-4.19444-.93754-4.60652-1.1675-4.32396-2.41288.17178-.75713 1.15132-5.2138 2.17675-9.90373 1.02543-4.68992 1.97787-8.64058 2.11653-8.77923.42786-.42787 23.09718 5.63978 24.06115 6.44018.47249.39232-5.97908 19.50194-6.57182 19.4658-.36431-.02222-3.39838-.88042-6.74238-1.90712zM216.7724 37.2886c-1.3308-5.19673-2.40901-9.76022-2.39602-10.1411.0352-1.0323 22.15044-5.87486 23.85044-5.22251.55848.21431 1.36681 3.67543 2.34398 10.03656.82034 5.3402 1.3875 9.7718 1.26036 9.84802-.12715.07621-4.9181 1.07994-10.64656 2.2305-5.72846 1.15055-10.77025 2.22809-11.20397 2.39452-.54349.20856-1.54063-2.6341-3.20823-9.14599zm67.54758 1.91286-9.11999-.1966-.009-8.78243c-.005-4.83034-.1824-9.43043-.39465-10.22243l-.3859-1.44h10.87464c5.98106 0 11.81046.18716 12.95423.41592l2.07958.41591-.38247 4.54409c-.21036 2.49924-.57378 7.06408-.8076 10.14408l-.42512 5.6-2.63199-.14097c-1.44759-.07753-6.73599-.22944-11.75199-.33757z"/>
    </g>
    <g id="mid">
      <path d="M259.83999 515.78316c-30.6448-2.62513-60.79084-11.26188-88-25.21174-15.53465-7.96447-30.64445-17.92521-44.36522-29.24665-7.14863-5.89856-23.54096-22.2909-29.43952-29.43953-36.09393-43.74326-55.14205-96.32062-55.14205-152.20523 0-38.06286 8.70312-74.30651 25.8954-107.84 7.96446-15.53465 17.9252-30.64445 29.24665-44.36523 5.89856-7.14863 22.29089-23.54097 29.43952-29.43953 36.53808-30.1487 78.95152-48.28553 125.96522-53.8652 3.344-.39687 12.41715-.88943 20.16255-1.09458 28.70113-.7602 53.1165 2.78834 80.05979 11.63592 28.61442 9.39633 54.43998 23.69986 78.22287 43.32386 7.14863 5.89856 23.54096 22.2909 29.43952 29.43953 36.09393 43.74326 55.14205 96.32062 55.14205 152.20523 0 38.06286-8.70312 74.30651-25.8954 107.84-11.71104 22.84235-25.11101 41.20095-43.48073 59.57067-14.02407 14.02408-26.82607 24.20403-42.97613 34.17399-31.84314 19.6578-67.58893 31.36-105.55453 34.55569-8.84949.74489-29.82542.72474-38.71999-.0372zm46.71999-3.09547c12.43394-1.84701 18.21572-2.88083 25.7411-4.60267 69.13329-15.81803 127.7884-62.68932 158.48461-126.64501 11.67849-24.33218 18.14023-46.63376 21.97415-75.84.53526-4.07749.84013-13.48364.84013-25.92 0-22.97809-1.06409-33.12579-5.51786-52.6211-19.88733-87.05201-88.72903-155.89372-175.78103-175.78105-19.49531-4.45377-29.64301-5.51786-52.6211-5.51786-22.97808 0-33.12578 1.0641-52.62109 5.51786-87.05946 19.88903-155.892 88.72158-175.78103 175.78105-4.45377 19.49531-5.51786 29.64301-5.51786 52.6211 0 22.97809 1.06409 33.12579 5.51786 52.6211 22.06117 96.56749 103.57539 169.26625 202.16213 180.29906 3.344.37422 6.944.79738 8 .94034 3.89884.52783 40.4802-.1636 45.11999-.85282zm-42.55999-4.32356c-4.03735-.25884-19.77217-2.16992-20.04021-2.43397-.19779-.19484 1.00137-7.69442 1.44059-9.00957.15811-.47342 1.84803-.43852 5.57326.1151 5.19155.77152 29.31251 2.16175 33.82635 1.94961l2.24-.10528.18692 4.96.18693 4.96-10.10693-.11536c-5.5588-.0634-11.54691-.20768-13.30691-.32053zm51.26906-3.67677c-.19061-.75945-.53365-2.97267-.76232-4.91827l-.41576-3.53745 4.71451-.83444c6.96895-1.23347 21.03818-4.78402 28.85865-7.28284l6.86415-2.19326 1.21425 3.27946c2.46921 6.66887 3.09367 5.78239-6.10897 8.67224-8.65498 2.71786-20.91697 5.79065-29.10576 7.29373-4.85467.89109-4.91624.88549-5.25875-.47917zm-107.26906-7.36594c-12.58393-4.20435-32-12.45249-32-13.59392 0-1.02396 3.84732-8.20748 4.39573-8.20748.29551 0 3.24337 1.26094 6.55079 2.80209 8.00758 3.73128 19.44183 8.20123 26.33348 10.29446 3.08.9355 5.59576 2.04348 5.59057 2.46217-.0185 1.49314-2.39988 8.39051-2.95015 8.54468-.30823.0863-3.87242-.94955-7.92042-2.302zm55.36-2.67907c-12.31367-.93973-29.34156-3.84005-39.23429-6.68269-2.82043-.81044-3.33055-1.17616-3.01729-2.16316.32571-1.02622-.56205-1.49147-6.52571-3.41991-25.4307-8.22337-47.67698-20.30921-69.62271-37.82427-10.56036-8.42831-32.96-31.66052-32.96-34.1851 0-.33738 1.5554-1.78776 3.45645-3.22306l3.45645-2.60964 4.0484 4.93275c10.12608 12.33806 25.65165 26.7205 39.2787 36.38667 22.43748 15.91573 49.52219 27.72091 76.00196 33.12633 16.34844 3.33726 22.00364 3.86469 41.43803 3.86469 14.1267 0 19.97192-.25536 25.92-1.13234 23.76307-3.50365 42.16095-9.02143 62.08-18.61866 81.39401-39.21661 127.08443-126.51809 112.87666-215.67541-13.77267-86.42693-82.18827-154.84255-168.6152-168.61521-62.08347-9.89339-125.74634 9.48864-171.00088 52.06088l-5.04927 4.74999-3.34503-3.38711-3.34503-3.3871 4.99938-4.67377c5.2634-4.92061 15.05018-12.97476 20.23509-16.65272 2.45621-1.74233 3.00563-2.46104 2.72775-3.56819-.29578-1.17849.53869-1.96417 5.56429-5.23901 30.5933-19.93556 65.56205-31.4887 103.19225-34.09314 12.8792-.89139 19.19999-.67186 19.19999.66683 0 1.26768 1.74472 1.77865 6.33806 1.8562 6.27542.10597 21.30012 2.02435 30.30194 3.869 6.37553 1.30646 8.48 1.53578 8.48.92403 0-1.68331 1.53296-1.5622 9.45713.74717 37.78329 11.01133 72.90693 32.79036 98.75501 61.23477 5.7563 6.3345 6.3082 7.15187 5.4611 8.0879-.84351.93206-.59078 1.47754 2.40975 5.2011 5.68529 7.05526 11.37174 15.3811 16.71701 24.47626 4.36169 7.42159 5.31623 8.66527 6.44492 8.39723 1.15228-.27365 1.81104.71222 5.05552 7.56585 16.77142 35.42788 23.78152 76.64624 19.5176 114.7605-1.02461 9.15869-1.20176 9.81489-2.55423 9.4612-.95219-.24899-1.26498.16971-1.60976 2.15488-2.03512 11.71784-6.41452 28.56822-9.67885 37.24074-1.44212 3.83137-1.46986 4.14061-.43899 4.89439 1.03854.7594 1.0347.98008-.0683 3.92671-1.85526 4.95632-8.92352 19.57391-12.58248 26.02133-4.77535 8.41461-13.62625 21.38315-20.18857 29.58075-11.28224 14.09368-29.30133 30.75562-44.33384 40.99471-5.26902 3.58889-6.16457 3.99857-7.04 3.22056-.87383-.77659-1.82738-.39611-7.40303 2.95395-7.73008 4.64452-20.70635 11.08848-28.19439 14.00121-4.55155 1.77047-5.43273 2.33677-5.17422 3.32527.38813 1.48424-2.22585 2.67359-12.87132 5.85645-25.57646 7.64703-52.50609 10.59851-78.56006 8.61019zm118.21735-14.97445c-1.13155-2.29467-2.05736-4.28551-2.05736-4.42411 0-.1386 3.096-1.97794 6.88-4.08741 7.65846-4.26939 16.69158-10.08607 23.61801-15.2083l4.57801-3.38553 3.04622 3.87736 3.04622 3.87735-1.54423 1.18966c-4.70187 3.62228-11.87089 8.59814-17.22423 11.95497-5.32993 3.34214-17.60387 10.37813-18.10416 10.37813-.0996 0-1.10693-1.87746-2.23848-4.17212zm-239.96128-17.19412c-8.43125-6.35613-23.85607-19.7872-23.85607-20.77254 0-.63941 5.993-6.50122 6.64671-6.50122.28751 0 2.58162 1.91082 5.09802 4.24627 7.62306 7.0749 17.18057 14.71686 27.19262 21.74256.40342.2831-5.05949 7.93117-5.66512 7.93117-.33005 0-4.56732-2.99081-9.41616-6.64624zm296.82428-24.35289-3.4359-3.47912 4.34404-4.68088c7.17104-7.72706 14.78388-17.24235 21.84033-27.29822.28309-.40342 7.93116 5.05948 7.93116 5.66512 0 1.19203-13.44666 18.40203-20.12094 25.75223-3.75566 4.136-6.8947 7.52-6.97563 7.52-.0809 0-1.69331-1.56561-3.58306-3.47913zM94.3469 414.3979c-6.6821-9.18054-19.4129-30.08347-18.70444-30.71116.36114-.31997 8.15615-4.16673 8.4434-4.16673.1553 0 2.0083 3.096 4.11778 6.88 4.26938 7.65846 10.08606 16.69158 15.20829 23.61801l3.38553 4.57801-3.74468 2.94199c-2.05958 1.6181-3.8649 2.942-4.01182 2.942-.14694 0-2.25926-2.73696-4.69406-6.08212zm384.59039-33.14894-3.94269-2.04895 1.6314-3.1904c3.13205-6.12517 7.97643-17.99529 10.84347-26.5696 1.58894-4.752 2.97874-8.73241 3.08844-8.84535.10969-.11295 2.25723.40747 4.7723 1.15649 3.68574 1.09766 4.50818 1.57205 4.23946 2.44536-.18337.59592-.95087 3.0995-1.70556 5.5635-3.3396 10.90357-13.00407 33.62502-14.2784 33.56895-.38816-.0171-2.47994-.95308-4.64842-2.08zM61.47663 349.60001c-2.70847-8.62521-5.78192-20.89349-7.28315-29.07218-1.0322-5.62338-1.44532-5.16361 5.37337-5.97999l3.56685-.42704.83178 4.69961c1.2343 6.97387 4.78562 21.0366 7.29909 28.90334 1.97192 6.17182 2.09722 6.96473 1.1538 7.30124-.5821.20762-2.43704.90794-4.12207 1.55626-1.68503.64832-3.33225 1.17876-3.66048 1.17876-.32824 0-1.74988-3.672-3.15919-8.16zm439.41929-34.75138c-4.96921-.83379-4.75102-.46852-3.86028-6.46226.77152-5.19155 2.16175-29.31252 1.94961-33.82636l-.10528-2.24 4.96-.18692 4.96-.18692-.0216 9.46692c-.0221 9.71735-.63858 18.65743-1.96568 28.50692-.83125 6.16933-.44415 5.84688-5.91682 4.92862zM50.74503 273.7887c.31421-11.22676 1.91924-29.02835 2.68944-29.8289.19044-.19795 7.69216 1.00215 9.00496 1.44059.47341.15811.43851 1.84803-.1151 5.57326-.77152 5.19155-2.16176 29.31252-1.94961 33.82636l.10528 2.24-5.0582.18869-5.0582.18869zm444.63881-33.30869c-1.22125-6.90099-4.78084-20.99543-7.26952-28.78416l-2.19326-6.86414 3.27945-1.21426c6.66887-2.46921 5.78239-3.09367 8.67224 6.10898 2.71755 8.65398 5.79066 20.91696 7.2932 29.10294l.90112 4.90935-3.96597.69065c-6.09489 1.06137-5.79982 1.23486-6.71726-3.94936zM63.55336 217.67439c-1.82964-.59088-3.47907-1.22676-3.6654-1.41308-1.2772-1.27721 13.96788-40.2613 15.74455-40.2613 1.02396 0 8.20748 3.84732 8.20748 4.39572 0 .29551-1.26094 3.24337-2.80209 6.55079-3.73127 8.00759-8.20123 19.44184-10.29445 26.33349-1.89417 6.23627-1.75327 6.15015-7.19009 4.39438zm407.60297-44.71438c-4.25899-7.63981-10.08427-16.68916-15.17116-23.56781l-3.3484-4.5278 3.85128-3.08178 3.85128-3.08178 1.1786 1.52958c3.60691 4.68098 8.59044 11.8616 11.94391 17.20959 4.32443 6.89643 10.55292 17.9699 10.25567 18.23327-.36114.31997-8.15615 4.16673-8.4434 4.16673-.15529 0-2.0083-3.096-4.11778-6.88zm-377.2278-18.56724c-2.0193-1.31602-3.6753-2.74553-3.68-3.17669-.01459-1.33917 12.93564-18.0325 20.16865-25.99816l6.88473-7.58209 3.53024 3.53025 3.53025 3.53024-4.64584 5.01184c-5.39975 5.82516-15.995 18.89028-19.23657 23.72082-1.232 1.83591-2.384 3.34219-2.56 3.34729-.176.005-1.97215-1.06748-3.99146-2.3835zm339.00098-31.57387c-4.61653-4.89021-25.30409-21.79502-29.64479-24.2242-.70075-.39216-.32049-1.3402 1.77561-4.42686 1.46704-2.16031 2.93738-3.92784 3.26742-3.92784 2.0048 0 33.27223 25.76461 33.27223 27.41658 0 .25693-1.52572 1.97391-3.39047 3.81551l-3.39047 3.34835zM141.7509 102.89519l-3.02408-3.89414 1.51659-1.16881c4.66237-3.5932 11.85336-8.58362 17.19658-11.9341 6.89644-4.32443 17.96991-10.55293 18.23327-10.25567.31998.36114 4.16673 8.15615 4.16673 8.4434 0 .1553-3.096 2.0083-6.88 4.11777-7.65642 4.26826-16.69131 10.08587-23.61251 15.20424l-4.57251 3.38146zm233.66283-20.43327c-5.0737-2.6753-17.57102-7.76175-25.97375-10.5714-4.752-1.58895-8.7447-2.99104-8.87266-3.11575-.12797-.12472.38897-2.27337 1.14874-4.77477 1.11588-3.67376 1.59119-4.48345 2.47267-4.21215.60019.18472 3.10725.95332 5.57125 1.70801 10.16739 3.11413 33.6 12.97302 33.6 14.13666 0 1.30219-3.92377 8.20515-4.64922 8.1792-.43493-.01556-1.91859-.62297-3.29703-1.3498zM203.61744 70.15946c-2.46921-6.66886-3.09367-5.78239 6.10897-8.67224 8.65498-2.71786 20.91697-5.79065 29.10576-7.29373 5.63007-1.03342 5.22228-1.39897 6.02107 5.39744l.41576 3.53745-4.71451.83444c-6.96895 1.23347-21.03818 4.78402-28.85865 7.28284l-6.86415 2.19326zm104.54254-7.8372c-4.98899-.75904-29.12336-2.15793-33.59999-1.94754l-2.24.10528-.1887-5.0582-.18868-5.0582 13.62868.38144c11.39612.31894 29.03431 1.9225 29.85357 2.7141.36202.34979-1.2579 9.23722-1.72232 9.44921-.23241.1061-2.72656-.15765-5.54256-.58608z"/>
    </g>
    <g id="inner">
      <path d="M269.11999 479.62356c-14.56517-1.09441-26.66094-2.9802-38.72-6.03663-76.25819-19.32803-134.2748-81.88652-147.778-159.34692-2.28976-13.13506-2.84805-19.90967-2.84805-34.56 0-23.22784 3.15498-42.72599 10.35577-64 9.18695-27.14188 22.61852-49.75096 42.88767-72.19188l4.79781-5.31188 3.36898 3.32714 3.36899 3.32714-5.55724 6.14474c-27.29685 30.18262-43.75949 66.20727-48.87188 106.94474-1.09962 8.76219-1.09962 34.75781 0 43.52 4.67656 37.2646 18.87199 70.54545 42.58519 99.84 5.00097 6.17804 19.19273 20.3698 25.37076 25.37076 29.29455 23.71321 62.5754 37.90864 99.84 42.5852 3.85044.48321 13.14234.84334 21.75999.84334 8.61766 0 17.90956-.36013 21.76-.84334 37.2646-4.67656 70.54545-18.87199 99.84-42.5852 6.17803-5.00096 20.36979-19.19272 25.37076-25.37076 23.69469-29.27168 37.99521-62.79175 42.59432-99.84 1.08976-8.77864 1.0843-34.80712-.009-43.52-4.67653-37.2646-18.87196-70.54545-42.58516-99.84-5.00097-6.17804-19.19273-20.3698-25.37076-25.37076-32.61057-26.39744-69.72432-40.87586-111.52-43.50498l-6.88-.43279v-9.47825l5.6.37967c9.82481.6661 18.19489 1.6232 25.76 2.94558 82.90907 14.4926 148.05287 79.63781 162.498 162.50153 2.28976 13.13506 2.84805 19.90967 2.84805 34.56 0 14.65033-.55829 21.42494-2.84805 34.56-14.30926 82.08432-78.34189 146.79595-160.49641 162.19834-13.01613 2.44027-36.18909 4.00666-47.12158 3.18521zm4.64-17.6474-1.76-.64281v-6.97191c0-6.53588.0901-7.0284 1.44-7.87504 1.63111-1.02298 23.91285-2.08261 25.24508-1.20055.4208.27861 1.16489 3.62003 1.65352 7.42538.88804 6.91577.88779 6.91923-.54307 7.85677-2.76652 1.81269-22.06941 2.85671-26.03553 1.40816zm-40.68116-5.37362c-11.63697-3.07783-16.75884-5.22367-16.75884-7.02123 0-1.46627 4.51902-12.72905 5.31362-13.24317.91927-.59478 2.93797-.23005 9.72638 1.75727 2.816.8244 7.17005 2.09095 9.67566 2.81456 6.30732 1.82153 6.40245 1.99483 5.03421 9.17105-.62069 3.25545-1.38646 6.423-1.70172 7.039-.79524 1.55387-4.01587 1.40624-11.28931-.51748zm95.50882-2.02448c-.38078-.27392-1.4958-3.45034-2.47781-7.05872-2.0259-7.44412-1.93453-7.79836 2.42056-9.38383 1.46827-.53453 6.21742-2.27768 10.55366-3.87368 4.33625-1.596 8.52388-2.90181 9.30584-2.90181 1.17843 0 1.93733 1.11435 4.43436 6.51132 2.89097 6.24839 2.96745 6.56126 1.89417 7.7481-1.5238 1.68502-4.35521 3.04736-12.63845 6.08101-7.29476 2.67164-12.29594 3.73827-13.49233 2.87761zm-57.54766-12.7264c-35.66228-2.72848-64.55164-13.642-91.84-34.69434-6.99556-5.39692-21.60039-20.00175-26.9973-26.99731-15.41806-19.98512-25.53706-41.29787-30.91141-65.10587-4.97074-22.02012-5.07533-47.94046-.2806-69.54226 6.36005-28.65409 20.01158-54.97075 39.30828-75.77633 4.12529-4.44786 4.38154-4.61437 5.51832-3.5856 1.14742 1.0384 1.01785 1.26141-3.454 5.94447-21.01348 22.00596-35.79705 53.40322-40.56214 86.14559-2.33101 16.01703-1.30579 40.1267 2.3813 56 5.7156 24.60627 16.58151 46.989 32.15686 66.24 5.41068 6.68756 19.23227 20.15138 25.74607 25.07965 23.10718 17.4826 47.80417 27.8562 76.13462 31.97921 16.01703 2.33101 40.12669 1.30579 55.99999-2.38131 23.51305-5.46165 43.55619-14.87591 63.01462-29.5979 6.5138-4.92827 20.33539-18.39209 25.74607-25.07965 6.351-7.84978 14.41996-20.29093 18.67881-28.8 10.12753-20.23446 15.27256-39.26413 17.08731-63.2.40386-5.3266.49783-5.6 1.9248-5.6 1.4576 0 1.49098.12275 1.17485 4.32-2.79016 37.04504-13.31162 65.22419-34.70916 92.96-5.39691 6.99556-20.00174 21.60039-26.9973 26.99731-23.88662 18.42797-50.61778 29.68071-79.40416 33.42593-7.59406.98802-24.14618 1.69454-29.71583 1.26841zm-82.92972-4.32906c-5.73668-2.04423-20.17477-12.28173-20.79256-14.74322-.31759-1.26534.39227-2.56313 3.66419-6.699 4.34924-5.49765 5.24482-5.92202 8.55437-4.05354 4.74072 2.6765 17.68815 11.82062 18.0417 12.74196.40459 1.05436-3.59803 9.20403-5.89798 12.00879-1.19645 1.45905-1.42945 1.50768-3.56972.74501zm76.52972-4.01193c-56.32851-5.96393-104.28209-41.02087-126.79984-92.69831-3.02041-6.93174-3.24919-7.77145-2.31367-8.49235.57098-.44 1.21446-.8 1.42994-.8.21548 0 1.35479 2.376 2.53178 5.28 18.95788 46.77457 60.71512 81.29539 110.43179 91.29426 10.80915 2.17391 17.43911 2.79704 29.75999 2.79704 12.32089 0 18.95085-.62313 29.76-2.79704 59.85004-12.03687 106.61739-58.80422 118.65426-118.65426 2.1739-10.80916 2.79703-17.43911 2.79703-29.76 0-12.32089-.62313-18.95084-2.79703-29.76-12.03687-59.85004-58.80422-106.61739-118.65426-118.65426-10.80915-2.17391-17.43911-2.79703-29.76-2.79703-12.32088 0-18.95084.62312-29.75999 2.79703-26.95892 5.4219-52.50862 18.37691-72.52459 36.77371-4.22949 3.88734-4.78089 4.20935-5.67574 3.3145-.54512-.54512-.80159-1.29779-.56993-1.67262 1.20423-1.94848 15.79447-13.71052 22.77026-18.35642 18.46633-12.29863 37.82354-19.98824 60.5868-24.06796 7.21081-1.29235 10.2831-1.472 25.17319-1.472 18.92907 0 25.72651.83927 41.1732 5.08361 52.11202 14.31899 93.31924 55.52622 107.63823 107.63824 4.24434 15.44669 5.08361 22.24413 5.08361 41.1732 0 18.92907-.83927 25.72651-5.08361 41.1732-14.31598 52.10105-55.5276 93.31953-107.61359 107.63149-14.21832 3.90685-21.87882 4.92188-38.63784 5.11958-8.27199.0976-16.19199.0555-17.59999-.0936zm111.03644-8.60814c-3.11458-4.74325-3.70019-6.04126-3.17139-7.02935 1.02281-1.91112 18.6348-15.31317 20.12346-15.31317 1.12683 0 9.93148 9.38353 9.93148 10.58445 0 1.83573-2.07576 4.15417-7.94807 8.87729-7.34829 5.91026-11.71672 8.69827-13.62902 8.69827-1.16614 0-2.30974-1.25374-5.30646-5.81749zm-105.59644.0194c-24.96037-1.62877-49.08304-9.71398-70.08-23.48877-17.0821-11.20649-30.89644-25.01972-42.07657-42.07317-15.75863-24.03719-23.63189-50.58359-23.63189-79.68 0-72.57911 52.59723-133.41485 124.54876-144.05731 18.12681-2.68117 39.96188-1.46774 57.6919 3.20605 29.67808 7.82342 56.77496 25.30725 76.45482 49.33126 8.70845 10.63076 18.27888 27.54234 23.3312 41.22779 10.05769 27.2437 11.59903 59.12563 4.21302 87.14442-7.82342 29.67808-25.30724 56.77496-49.33125 76.45483-10.63076 8.70845-27.54234 18.27888-41.22779 23.3312-18.38179 6.7861-40.04846 9.89858-59.8922 8.6037zm24.18522-1.91683c33.27964-3.61398 63.85544-18.19999 87.17477-41.58622 27.14847-27.22636 42.24-63.57566 42.24-101.73889 0-38.14345-15.16919-74.68458-42.2423-101.7577C354.36456 150.8492 317.82343 135.68 279.67998 135.68c-38.14344 0-74.68457 15.1692-101.75769 42.24231-15.9656 15.96561-27.75409 35.00666-34.79079 56.19497-15.19359 45.7496-6.90703 94.79885 22.56419 133.56043 9.40969 12.37594 24.06235 25.64541 37.8243 34.2537 17.18438 10.74908 40.08122 18.70059 60.48 21.00324 7.30616.82473 22.98348.86123 30.26522.0705zM143.4997 401.47491c-1.76999-1.23385-10.11134-11.51811-12.86903-15.86652-3.05725-4.82079-2.85256-5.33711 3.88472-9.79889 4.65258-3.08119 6.11556-3.76247 7.02935-3.27343 1.86695.99917 15.25525 18.63269 15.25525 20.09246 0 1.22217-9.43972 9.93641-10.72192 9.89792-.61495-.0185-1.7752-.49166-2.57837-1.05154zm272.63358-13.1549c-5.58402-4.29158-5.99744-5.14693-4.10647-8.49628 2.70164-4.78528 11.82492-17.6898 12.76009-18.04865.97696-.3749 7.82515 2.92832 11.8056 5.69441 1.51388 1.05203 1.64591 1.42231 1.1383 3.19227-1.24623 4.34534-12.06838 20.36616-14.34849 21.24113-1.71328.65744-1.76495.6319-7.24903-3.58288zm-302.64403-33.90114c-1.84746-2.02752-2.53981-3.49374-5.67389-12.01584-2.82033-7.66894-3.90884-12.61746-3.03341-13.79023.27392-.36697 3.4502-1.4821 7.0584-2.47807 7.44249-2.05434 7.79706-1.96383 9.38415 2.39569.53453 1.46828 2.27768 6.21743 3.87368 10.55368 1.596 4.33625 2.90181 8.54322 2.90181 9.34884 0 1.22456-.97081 1.91123-5.92 4.18732-3.256 1.4974-6.22182 2.84291-6.59072 2.99002-.36889.1471-1.2689-.38903-2.00002-1.19141zm329.08916-13.67785c-3.15785-1.23396-5.96534-2.58949-6.23886-3.01228-.59623-.92164-.23252-2.93685 1.75582-9.72873.8244-2.816 2.09095-7.17005 2.81456-9.67567.72361-2.50561 1.7357-4.90426 2.2491-5.33034.73762-.61218 2.29302-.4974 7.41451.54714 3.5646.727 6.78466 1.50944 7.15569 1.73876 1.05897.65447.14237 6.77888-2.25212 15.04789-2.53174 8.74297-4.23676 12.34042-5.93603 12.5245-.67161.0728-3.8048-.87731-6.96267-2.11127zM98.72676 299.69596c-1.79215-2.73516-2.80863-21.59419-1.38415-25.68045l.7026-2.0155h6.96264c6.52626 0 7.01924.0903 7.86576 1.44 1.02298 1.63111 2.08261 23.91285 1.20055 25.24509-.27861.4208-3.62003 1.16488-7.42538 1.65352l-6.91882.88842zm355.1933-12.17331c-5.96047-.18846-6.6411-.33696-7.44837-1.62503-1.02895-1.64178-2.04932-23.91654-1.15752-25.26859.31101-.47151 3.42236-1.15895 7.43278-1.64223 6.85341-.82589 6.90385-.82209 7.82841.58897 1.98602 3.03105 2.87788 22.23041 1.21727 26.2048-.51004 1.22069-1.01404 2.1587-1.12 2.08446-.10596-.0742-3.14462-.2283-6.75257-.34238zm-346.1111-41.71029c-2.83307-.60357-5.53329-1.33365-6.0005-1.6224-1.22614-.75779-.56475-5.82545 1.89751-14.53895 2.24448-7.94285 4.19934-12.63344 5.46804-13.12029 1.32734-.50935 13.63817 4.32739 14.01195 5.5051.18316.57705-.0591 2.47906-.5384 4.22669-5.45537 19.89236-5.82688 20.82366-8.26232 20.71237-.78388-.0358-3.74321-.55895-6.57628-1.16252zm331.56038-12.42824c-.53908-.82274-1.81315-3.91874-2.83126-6.88-1.01812-2.96126-2.5997-7.33468-3.51462-9.71872-2.62739-6.84629-2.66081-6.77563 4.84784-10.24967 6.26011-2.89639 6.56013-2.96947 7.77668-1.89417 1.60298 1.41688 4.09591 6.91422 7.06681 15.58359 2.47118 7.21115 2.81486 9.61645 1.52519 10.67438-.69935.57369-12.18534 3.9788-13.42525 3.98002-.25589.00025-.90631-.67269-1.44539-1.49543zm-311.43484-38.3501c-6.77966-3.78175-6.97984-3.98386-6.29856-6.35934 1.4638-5.104 12.38788-20.71524 14.94469-21.35696 1.26534-.31759 2.56313.39228 6.699 3.6642 2.88077 2.279 5.14512 4.56028 5.16499 5.20358.0503 1.62951-1.7747 4.80374-7.80461 13.57451-3.44389 5.00928-5.72514 7.73356-6.56002 7.83401-.704.0847-3.46947-1.06729-6.14549-2.56zm289.82427-8.20596c-1.93125-1.12479-15.19879-18.69217-15.19879-20.1245 0-1.06564 9.55087-9.90355 10.70247-9.90355 1.7143 0 4.12859 2.1907 8.75926 7.94806 5.88525 7.3172 8.69827 11.71567 8.69827 13.60073 0 1.12222-1.32146 2.34673-5.73545 5.3147-3.1545 2.12108-5.8185 3.84775-5.92 3.83704-.10151-.0107-.6891-.31331-1.30576-.67248zm-256.42535-34.94801c-2.49338-2.70597-4.53343-5.46067-4.53343-6.12155 0-3.20126 20.237-18.7753 22.54402-17.34948.34053.21045 2.31572 2.96639 4.38932 6.1243 3.07256 4.67925 3.65016 5.96589 3.1216 6.95352-1.03637 1.93645-18.63946 15.31317-20.15139 15.31317-.46018 0-2.87673-2.21398-5.37012-4.91996zm218.49028-4.54687c-4.78528-2.70165-17.6898-11.82493-18.04865-12.76009-.3749-.97696 2.92832-7.82516 5.69441-11.80561 1.05202-1.51388 1.42231-1.64591 3.19227-1.1383 5.0857 1.45857 20.73679 12.38656 21.37354 14.92357.30799 1.22716-.43919 2.59819-3.6642 6.72352-4.34304 5.55547-5.18511 5.95515-8.54737 4.05691zM206.50719 121.4945c-2.88401-6.2652-2.95312-6.55245-1.87091-7.77668 2.33378-2.64003 20.90953-9.64289 24.60935-9.27746 1.99193.19674 2.04892.29905 3.92905 7.05208 2.16436 7.774 2.08078 8.12082-2.34511 9.73207-1.46827.53453-6.21742 2.27768-10.55367 3.87368-4.33624 1.596-8.53433 2.90181-9.32908 2.90181-1.20883 0-1.93445-1.06327-4.43963-6.5055zm126.29279 1.11261c-1.584-.45457-6.192-1.7476-10.24-2.87338-7.15138-1.98887-10.24-3.33954-10.24-4.47803 0-1.07787 2.55931-12.9768 2.9149-13.55215.70414-1.13933 5.2643-.55301 13.43898 1.72792 8.86623 2.47388 13.64636 4.416 14.15934 5.75278.39686 1.03421-4.10529 13.19149-5.12548 13.84048-.96774.61563-1.45047.57454-4.90774-.41762zm-71.79882-8.45877c-1.18594-.33675-1.956-4.59998-2.06178-11.41467l-.0594-3.82634 2.49566-.82848c3.9579-1.3139 21.32233-1.80966 24.03293-.68614l2.20859.91545-.16193 6.36592c-.20459 8.04274-.34863 8.49107-2.85132 8.87506-3.02627.46434-22.35003.9549-23.60275.5992z"/>
    </g>
  </defs>
</svg>
