<svg xmlns="http://www.w3.org/2000/svg" viewBox="0 -1 140 140">
   <path d="M62.464 137c-7.562-.724-15.724-2.952-22.876-6.244l-2-.921-1.486.895c-2.229 1.342-4.216 1.99-6.624 2.158-3.93.275-7.355-1.004-10.411-3.887-2.077-1.959-3.488-4.413-4.026-7.003-.443-2.132-.19-5.755.536-7.665l.582-1.534-1.812-2.372C2.203 95.025-2.419 75.714 1.2 55.985c1.79-9.757 5.936-19.422 11.717-27.307 1.029-1.404 2.063-2.82 2.297-3.147.397-.553.376-.722-.303-2.42-2.35-5.873-.055-12.966 5.34-16.507 4.528-2.972 10.776-2.988 15.162-.04l1.543 1.037 3.259-1.482C46.282 3.36 53.199 1.387 60.444.348c3.657-.525 14.062-.44 17.913.146 6.85 1.042 13.092 2.838 18.826 5.415l2.703 1.214 2.026-1.093c6.446-3.476 14.228-1.463 18.246 4.722 2.089 3.215 2.726 7.812 1.59 11.463l-.517 1.661 1.78 2.202c7.673 9.493 12.676 21.453 14.387 34.392.436 3.3.436 13.4 0 16.7-1.684 12.732-6.347 24.032-13.982 33.878l-1.726 2.227.587 1.545c.72 1.898.984 5.539.55 7.623-.69 3.329-3.218 6.946-6.181 8.847-2.362 1.516-4.142 1.994-7.446 2.001-3.291.007-4.948-.455-7.546-2.107l-1.35-.859-2.96 1.338c-5.84 2.639-13.256 4.73-19.795 5.583-3.108.405-11.943.553-15.085.252zm12.604-9.43c6.121-.665 12.922-2.488 18-4.825l2.454-1.13-.124-1.797c-.264-3.827 1.189-7.542 4.083-10.441 4.012-4.02 9.598-5.225 14.972-3.231.277.103.925-.548 2.06-2.069 2.549-3.412 3.744-5.38 5.874-9.665 7.983-16.068 8.082-35.276.266-51.64-1.785-3.738-2.889-5.606-5.272-8.93-2.906-4.05-2.409-3.678-4.178-3.12-6.492 2.046-12.76-.105-16.413-5.634-1.486-2.25-2.09-4.436-2.115-7.658l-.021-2.81-2.009-.911c-4.821-2.187-11.668-3.992-17.577-4.634-10.106-1.097-21.704.802-30.72 5.03l-2.625 1.233v1.808c0 2.558-.41 4.422-1.449 6.595-1.628 3.406-4.639 6.033-8.208 7.161-2.181.69-5.99.765-7.932.158l-1.291-.404-1.108 1.391c-4.337 5.445-8.357 13.513-10.288 20.652-1.748 6.46-2.465 14.92-1.806 21.298 1.209 11.697 5.704 22.742 12.86 31.591.572.71.582.71 1.75.289 1.663-.6 5-.789 7.02-.396 6.625 1.288 11.645 7.72 11.189 14.337l-.124 1.798 2.417 1.107c4.995 2.288 11.874 4.173 17.576 4.817 3.076.347 9.674.362 12.739.03zM45.197 102.01c-1.162-.607-1.579-1.023-2.186-2.186l-.75-1.435.002-18.085c.001-11.918.1-18.435.288-19.113.465-1.678 1.956-3.094 3.792-3.605l1.575-.438.005-5.68c.006-6.795.284-8.422 2.052-12.004 1.027-2.08 1.668-2.961 3.459-4.752 1.816-1.816 2.64-2.41 4.74-3.424 3.367-1.625 5.665-2.066 10.756-2.066 5.09 0 7.388.441 10.756 2.066 2.1 1.013 2.923 1.608 4.74 3.424 1.79 1.791 2.431 2.672 3.458 4.752 1.768 3.582 2.046 5.21 2.052 12.004l.005 5.68 1.576.438c1.836.51 3.326 1.927 3.792 3.605.188.678.286 7.195.287 19.113l.002 18.085-.75 1.435c-.607 1.163-1.023 1.579-2.185 2.186l-1.436.75H46.634zM71.353 89.69c.983-.508 2.067-1.734 2.545-2.88.322-.77.418-2.046.418-5.546 0-4.24-.042-4.626-.627-5.733-.411-.78-1.074-1.465-1.931-1.996-2.653-1.642-6.154-.722-7.59 1.996-.586 1.11-.626 1.487-.626 5.867 0 3.316.105 4.933.362 5.547.46 1.096 2.353 2.822 3.335 3.039.41.09.868.208 1.017.26.45.161 2.383-.185 3.097-.554zm8.035-38.041c-.086-5.139-.144-5.698-.71-6.936-.807-1.764-2.49-3.455-4.2-4.219-1.235-.551-1.797-.614-5.549-.622-3.795-.007-4.298.048-5.522.611-1.761.81-3.452 2.491-4.227 4.203-.573 1.267-.628 1.807-.708 6.963l-.088 5.59h21.098z" fill="currentColor"/>
</svg>