<svg xmlns="http://www.w3.org/2000/svg">
	<path d="M258.6 359c0 2.8 2.2 5.1 4.8 5.1h118.4c2.6 0 4.8-2.3 4.8-5.1v-30.7c0-2.8-2.2-5.1-4.8-5.1H263.4c-2.6 0-4.8 2.3-4.8 5.1V359zm-124.8 3.9l122.9-103c2.4-2 2.4-5.8 0-7.9L133.8 149c-2.1-1.8-5.4-1.6-7.2.6-.8.9-1.2 2.1-1.2 3.3V193c0 1.5.6 2.9 1.9 3.9l70.3 59-70.3 59c-1.2 1-1.8 2.4-1.9 3.9V359c0 4.4 5.1 6.8 8.4 3.9zM491.5 0h-471C9.2 0 0 9.2 0 20.5v471C0 502.8 9.2 512 20.5 512h471c11.3 0 20.5-9.2 20.5-20.5v-471C512 9.2 502.8 0 491.5 0zm-25.6 465.9H46.1V46.1h419.8v419.8z" fill="currentColor"/>
</svg>